<?xml version="1.0" encoding="UTF-8" standalone="no"?>
<svg
   id="svg5579"
   version="1.1"
   viewBox="0 0 23.161892 23.160339"
   height="23.160339mm"
   width="23.161892mm"
   xmlns="http://www.w3.org/2000/svg"
   xmlns:svg="http://www.w3.org/2000/svg"
   xmlns:rdf="http://www.w3.org/1999/02/22-rdf-syntax-ns#"
   xmlns:cc="http://creativecommons.org/ns#"
   xmlns:dc="http://purl.org/dc/elements/1.1/">
  <defs
     id="defs5573" />
  <metadata
     id="metadata5576">
    <rdf:RDF>
      <cc:Work
         rdf:about="">
        <dc:format>image/svg+xml</dc:format>
        <dc:type
           rdf:resource="http://purl.org/dc/dcmitype/StillImage" />
      </cc:Work>
    </rdf:RDF>
  </metadata>
  <g
     transform="translate(-6.5758264,-157.5878)"
     id="layer1">
    <path
       d="m 7.104993,157.5878 a 0.52916666,0.52916666 0 0 0 -0.5291666,0.52916 v 22.10201 a 0.52916666,0.52916666 0 0 0 0.5291666,0.52917 h 22.10356 a 0.52916666,0.52916666 0 0 0 0.529166,-0.52917 v -22.10201 a 0.52916666,0.52916666 0 0 0 -0.529166,-0.52916 z m 1.466577,1.99419 h 16.959171 v 1.08417 H 10.784872 10.220048 9.6557417 v 0.56431 0.5643 2.64687 h 6.6130323 v 2.83962 H 8.57157 Z m 18.088302,0 h 1.022159 a 0.06158867,0.06158867 0 0 1 0.0615,0.0615 v 1.02268 h -1.083654 z m -15.875,2.21278 h 14.745869 v 5.48649 h -5.486487 v -3.40444 -0.56431 h -1.128612 v 0.56431 4.53357 h 6.615099 v 1.51515 H 9.7043173 l -0.043408,8.82841 H 8.6320315 a 0.06028633,0.06028633 0 0 1 -0.060462,-0.0605 v -10.28309 h 8.8263335 v -5.09788 h -6.613032 z m 15.875,0 h 1.083654 v 16.89768 a 0.06158867,0.06158867 0 0 1 -0.0615,0.0615 H 26.458333 V 174.625 h -1.321882 v -1.12293 h 0.958596 0.363286 v -0.7307 h -0.363286 -1.687234 v 1.85363 0.36329 0.36535 h 0.728638 0.593244 v 3.40031 H 10.790039 l 0.03772,-7.69927 h 10.933182 v 3.04115 0.72864 2.281 0.36535 h 0.728638 v -0.36535 -2.281 h 0.593762 v 2.281 0.36535 h 0.730705 v -0.36535 -3.00964 h -0.265617 v -0.95911 -0.36535 h -0.728636 v 0.36535 0.95911 h -0.330214 v -3.04115 h 4.170289 z m -14.158309,10.9766 v 0.36535 4.3341 h 3.374987 v -4.3341 -0.36535 h -0.730704 v 0.36535 3.6034 h -0.593763 v -3.6034 -0.36535 h -0.728637 v 0.36535 3.6034 H 13.2302 v -3.6034 -0.36535 z m 3.96875,0 v 0.36535 4.3341 h 2.05052 v -4.69945 z m 2.644282,0 v 4.3341 0.36535 h 0.730706 v -0.36535 -3.6034 h 0.957048 0.365352 v -0.7307 h -0.365352 z m -1.915645,0.7307 h 0.593246 v 3.23805 H 17.19895 Z"
       style="color:#000000;font-style:normal;font-variant:normal;font-weight:normal;font-stretch:normal;font-size:medium;line-height:normal;font-family:sans-serif;font-variant-ligatures:normal;font-variant-position:normal;font-variant-caps:normal;font-variant-numeric:normal;font-variant-alternates:normal;font-variant-east-asian:normal;font-feature-settings:normal;font-variation-settings:normal;text-indent:0;text-align:start;text-decoration:none;text-decoration-line:none;text-decoration-style:solid;text-decoration-color:#000000;letter-spacing:normal;word-spacing:normal;text-transform:none;writing-mode:lr-tb;direction:ltr;text-orientation:mixed;dominant-baseline:auto;baseline-shift:baseline;text-anchor:start;white-space:normal;shape-padding:0;shape-margin:0;inline-size:0;clip-rule:nonzero;display:inline;overflow:visible;visibility:visible;opacity:1;isolation:auto;mix-blend-mode:normal;color-interpolation:sRGB;color-interpolation-filters:linearRGB;solid-color:#000000;solid-opacity:1;vector-effect:none;fill:#005242;fill-opacity:1;fill-rule:nonzero;stroke:none;stroke-width:1.995;stroke-linecap:square;stroke-linejoin:miter;stroke-miterlimit:4;stroke-dasharray:none;stroke-dashoffset:0;stroke-opacity:1;paint-order:stroke markers fill;color-rendering:auto;image-rendering:auto;shape-rendering:auto;text-rendering:auto;enable-background:accumulate;stop-color:#000000;stop-opacity:1"
       id="path1122" />
  </g>
</svg>
