<?xml version="1.0" encoding="UTF-8" standalone="no"?>
<svg
   inkscape:version="1.3.2 (091e20e, 2023-11-25, custom)"
   sodipodi:docname="header.svg"
   id="svg5579"
   version="1.1"
   viewBox="0 0 73.593994 33.159999"
   height="33.16mm"
   width="73.593994mm"
   inkscape:dataloss="true"
   inkscape:export-filename="header.svg"
   inkscape:export-xdpi="76.599998"
   inkscape:export-ydpi="76.599998"
   xmlns:inkscape="http://www.inkscape.org/namespaces/inkscape"
   xmlns:sodipodi="http://sodipodi.sourceforge.net/DTD/sodipodi-0.dtd"
   xmlns="http://www.w3.org/2000/svg"
   xmlns:svg="http://www.w3.org/2000/svg"
   xmlns:rdf="http://www.w3.org/1999/02/22-rdf-syntax-ns#"
   xmlns:cc="http://creativecommons.org/ns#"
   xmlns:dc="http://purl.org/dc/elements/1.1/">
  <defs
     id="defs5573" />
  <sodipodi:namedview
     inkscape:window-maximized="1"
     inkscape:window-y="-8"
     inkscape:window-x="-8"
     inkscape:window-height="1009"
     inkscape:window-width="1920"
     fit-margin-bottom="0"
     fit-margin-right="0"
     fit-margin-left="0"
     fit-margin-top="0"
     showgrid="true"
     inkscape:document-rotation="0"
     inkscape:current-layer="layer1"
     inkscape:document-units="mm"
     inkscape:cy="102.04806"
     inkscape:cx="171.85766"
     inkscape:zoom="2.0627536"
     inkscape:pageshadow="2"
     inkscape:pageopacity="0.0"
     borderopacity="1.0"
     bordercolor="#666666"
     pagecolor="#ffffff"
     id="base"
     inkscape:showpageshadow="2"
     inkscape:pagecheckerboard="0"
     inkscape:deskcolor="#d1d1d1"
     showguides="true">
    <inkscape:grid
       originy="-157.5878"
       originx="-6.5758262"
       id="grid6156"
       type="xygrid"
       spacingy="1"
       spacingx="1"
       units="mm"
       visible="true" />
    <sodipodi:guide
       position="79.383275,9.6934592"
       orientation="1,0"
       id="guide4"
       inkscape:locked="false" />
    <sodipodi:guide
       position="80.707742,6.652299"
       orientation="0,-1"
       id="guide6"
       inkscape:locked="false" />
    <sodipodi:guide
       position="80.442125,6.972319"
       orientation="1,0"
       id="guide7"
       inkscape:locked="false" />
    <sodipodi:guide
       position="49.380452,10.822589"
       orientation="0,-1"
       id="guide8"
       inkscape:locked="false" />
    <sodipodi:guide
       position="38.162531,17.04082"
       orientation="0,-1"
       id="guide9"
       inkscape:locked="false" />
    <sodipodi:guide
       position="46.296291,14.396529"
       orientation="0,-1"
       id="guide10"
       inkscape:locked="false" />
    <sodipodi:guide
       position="48.629601,14.118159"
       orientation="0,-1"
       id="guide14"
       inkscape:locked="false" />
  </sodipodi:namedview>
  <metadata
     id="metadata5576">
    <rdf:RDF>
      <cc:Work
         rdf:about="">
        <dc:format>image/svg+xml</dc:format>
        <dc:type
           rdf:resource="http://purl.org/dc/dcmitype/StillImage" />
      </cc:Work>
    </rdf:RDF>
  </metadata>
  <g
     transform="translate(-6.5758261,-157.5878)"
     id="layer1"
     inkscape:groupmode="layer"
     inkscape:label="レイヤー 1">
    <g
       id="g21"
       transform="matrix(1.0495625,0,0,1.0495625,-2.1496623,-8.6321774)"
       style="stroke-width:0.952778">
      <g
         id="g20"
         transform="translate(5.0001043,4.9998296)"
         style="stroke-width:0.952778">
        <path
           d="m 7.1049927,157.5878 a 0.52916666,0.52916666 0 0 0 -0.5291666,0.52916 v 22.10201 a 0.52916666,0.52916666 0 0 0 0.5291666,0.52917 H 29.208553 a 0.52916666,0.52916666 0 0 0 0.529166,-0.52917 v -22.10201 a 0.52916666,0.52916666 0 0 0 -0.529166,-0.52916 z m 1.466577,1.99419 H 25.530741 v 1.08417 H 10.784872 10.220048 9.6557414 v 0.56431 0.5643 2.64687 h 6.6130326 v 2.83962 H 8.5715697 Z m 18.0883023,0 h 1.022159 a 0.06158867,0.06158867 0 0 1 0.0615,0.0615 v 1.02268 h -1.083654 z m -15.875,2.21278 h 14.745869 v 5.48649 h -5.486487 v -3.40444 -0.56431 h -1.128612 v 0.56431 4.53357 h 6.615099 v 1.51515 H 9.704317 l -0.043408,8.82841 H 8.6320312 a 0.06028633,0.06028633 0 0 1 -0.060462,-0.0605 v -10.28309 h 8.8263338 v -5.09788 h -6.613032 z m 15.875,0 h 1.083654 v 16.89768 a 0.06158867,0.06158867 0 0 1 -0.0615,0.0615 H 26.458333 V 174.625 h -1.321882 v -1.12293 h 0.958596 0.363286 v -0.7307 h -0.363286 -1.687234 v 1.85363 0.36329 0.36535 h 0.728638 0.593244 v 3.40031 H 10.790039 l 0.03772,-7.69927 h 10.933182 v 3.04115 0.72864 2.281 0.36535 h 0.728638 v -0.36535 -2.281 h 0.593762 v 2.281 0.36535 h 0.730705 v -0.36535 -3.00964 h -0.265617 v -0.95911 -0.36535 h -0.728636 v 0.36535 0.95911 h -0.330214 v -3.04115 h 4.170289 z m -14.158309,10.9766 v 0.36535 4.3341 h 3.374987 v -4.3341 -0.36535 h -0.730704 v 0.36535 3.6034 h -0.593763 v -3.6034 -0.36535 h -0.728637 v 0.36535 3.6034 H 13.2302 v -3.6034 -0.36535 z m 3.96875,0 v 0.36535 4.3341 h 2.05052 v -4.69945 z m 2.644282,0 v 4.3341 0.36535 h 0.730706 v -0.36535 -3.6034 h 0.957048 0.365352 v -0.7307 h -0.365352 z m -1.915645,0.7307 h 0.593246 v 3.23805 H 17.19895 Z"
           style="color:#000000;font-style:normal;font-variant:normal;font-weight:normal;font-stretch:normal;font-size:medium;line-height:normal;font-family:sans-serif;font-variant-ligatures:normal;font-variant-position:normal;font-variant-caps:normal;font-variant-numeric:normal;font-variant-alternates:normal;font-variant-east-asian:normal;font-feature-settings:normal;font-variation-settings:normal;text-indent:0;text-align:start;text-decoration:none;text-decoration-line:none;text-decoration-style:solid;text-decoration-color:#000000;letter-spacing:normal;word-spacing:normal;text-transform:none;writing-mode:lr-tb;direction:ltr;text-orientation:mixed;dominant-baseline:auto;baseline-shift:baseline;text-anchor:start;white-space:normal;shape-padding:0;shape-margin:0;inline-size:0;clip-rule:nonzero;display:inline;overflow:visible;visibility:visible;opacity:1;isolation:auto;mix-blend-mode:normal;color-interpolation:sRGB;color-interpolation-filters:linearRGB;solid-color:#000000;solid-opacity:1;vector-effect:none;fill:#005242;fill-opacity:1;fill-rule:nonzero;stroke:none;stroke-width:1.90079;stroke-linecap:square;stroke-linejoin:miter;stroke-miterlimit:4;stroke-dasharray:none;stroke-dashoffset:0;stroke-opacity:1;paint-order:stroke markers fill;color-rendering:auto;image-rendering:auto;shape-rendering:auto;text-rendering:auto;enable-background:accumulate;stop-color:#000000;stop-opacity:1"
           id="path1122" />
        <g
           id="g19"
           transform="translate(-2.6475868,0.01690968)"
           style="stroke-width:0.952778">
          <path
             id="path2"
             style="color:#000000;font-style:normal;font-variant:normal;font-weight:normal;font-stretch:normal;font-size:medium;line-height:normal;font-family:sans-serif;font-variant-ligatures:normal;font-variant-position:normal;font-variant-caps:normal;font-variant-numeric:normal;font-variant-alternates:normal;font-variant-east-asian:normal;font-feature-settings:normal;font-variation-settings:normal;text-indent:0;text-align:start;text-decoration:none;text-decoration-line:none;text-decoration-style:solid;text-decoration-color:#000000;letter-spacing:normal;word-spacing:normal;text-transform:none;writing-mode:lr-tb;direction:ltr;text-orientation:mixed;dominant-baseline:auto;baseline-shift:baseline;text-anchor:start;white-space:normal;shape-padding:0;shape-margin:0;inline-size:0;clip-rule:nonzero;display:inline;overflow:visible;visibility:visible;opacity:1;isolation:auto;mix-blend-mode:normal;color-interpolation:sRGB;color-interpolation-filters:linearRGB;solid-color:#000000;solid-opacity:1;vector-effect:none;fill:#005242;fill-opacity:1;fill-rule:nonzero;stroke:none;stroke-width:1.90078;stroke-linecap:square;stroke-linejoin:miter;stroke-miterlimit:4;stroke-dasharray:none;stroke-dashoffset:0;stroke-opacity:1;paint-order:stroke markers fill;color-rendering:auto;image-rendering:auto;shape-rendering:auto;text-rendering:auto;enable-background:accumulate;stop-color:#000000;stop-opacity:1"
             d="m 64.467496,161.7119 v 11.62893 h 1.29517 v -4.70392 h 1.055424 v 4.70392 h 1.298845 v -5.99908 h -0.472137 l -4e-6,-2.35427 h -1.29517 v 2.35427 h -0.586955 l -3e-6,-5.62985 z m -16.458756,3.27558 v 8.35335 h 5.999115 v -8.35335 h -1.298843 v 7.05453 h -1.055426 v -7.05453 h -1.29517 v 7.05453 h -1.054507 v -7.05453 z m 7.05454,0 v 8.35335 h 3.644845 v -8.35335 z m 4.700271,0 v 8.35335 h 1.298846 v -7.05453 h 2.350591 v -1.29882 z m 9.40881,0 v 4.59003 h 2.349674 v 7.01271 h 1.295171 v -8.30787 h -2.349678 v -1.99605 h 2.349678 v -1.29882 z m -12.813913,1.29882 h 1.05451 v 5.75571 h -1.05451 z"
             sodipodi:nodetypes="cccccccccccccccccccccccccccccccccccccccccccccccccccccccc" />
          <rect
             style="fill:#005242;fill-opacity:1;stroke:none;stroke-width:0.403025;paint-order:fill markers stroke"
             id="rect10"
             width="1.2951688"
             height="14.872828"
             x="45.541149"
             y="161.71738" />
          <rect
             style="fill:#005242;fill-opacity:1;stroke:none;stroke-width:0.403025;paint-order:fill markers stroke"
             id="rect11"
             width="1.2951688"
             height="11.623447"
             x="41.536945"
             y="161.71738" />
          <rect
             style="fill:#005242;fill-opacity:1;stroke:none;stroke-width:0.403025;paint-order:fill markers stroke"
             id="rect12"
             width="1.2951688"
             height="4.0042048"
             x="172.04567"
             y="-46.836319"
             transform="rotate(90)" />
          <rect
             style="fill:#005242;fill-opacity:1;stroke:none;stroke-width:0.403024;paint-order:fill markers stroke"
             id="rect13"
             width="1.2951688"
             height="10.541149"
             x="175.29504"
             y="-45.541149"
             transform="rotate(90)" />
          <rect
             style="fill:#005242;fill-opacity:1;stroke:none;stroke-width:0.403024;paint-order:fill markers stroke"
             id="rect14"
             width="1.2951688"
             height="5.2587767"
             x="161.71738"
             y="-40.258778"
             transform="rotate(90)" />
          <rect
             style="fill:#005242;fill-opacity:1;stroke:none;stroke-width:0.403024;paint-order:fill markers stroke"
             id="rect15"
             width="1.2951688"
             height="5.2587767"
             x="164.98747"
             y="-40.258778"
             transform="rotate(90)" />
          <rect
             style="fill:#005242;fill-opacity:1;stroke:none;stroke-width:0.403024;paint-order:fill markers stroke"
             id="rect16"
             width="1.2951688"
             height="5.2587767"
             x="172.04567"
             y="-40.258778"
             transform="rotate(90)" />
          <rect
             style="fill:#005242;fill-opacity:1;stroke:none;stroke-width:0.403025;paint-order:fill markers stroke"
             id="rect17"
             width="1.2951688"
             height="4.5652418"
             x="35"
             y="161.71738" />
          <rect
             style="fill:#005242;fill-opacity:1;stroke:none;stroke-width:0.403025;paint-order:fill markers stroke"
             id="rect18"
             width="1.2951688"
             height="8.2461214"
             x="38.963608"
             y="164.98744" />
          <rect
             style="fill:#005242;fill-opacity:1;stroke:none;stroke-width:0.403024;paint-order:fill markers stroke"
             id="rect19"
             width="1.2951688"
             height="23.513294"
             x="175.29504"
             y="-71.522034"
             transform="rotate(90)" />
        </g>
      </g>
    </g>
    <rect
       style="fill:none;fill-opacity:1;stroke:#005242;stroke-width:1;stroke-dasharray:none;stroke-opacity:1;paint-order:fill markers stroke"
       id="rect21"
       width="92.604164"
       height="66.145836"
       x="-2.929255"
       y="141.09488" />
  </g>
</svg>
